<mxfile host="app.diagrams.net" modified="2021-03-13T11:41:49.960Z" agent="5.0 (X11; Linux x86_64) AppleWebKit/537.36 (KHTML, like Gecko) Chrome/89.0.4389.82 Safari/537.36" etag="S5J0tSQyj9vOrPyv6p80" version="14.4.8" type="github">
  <diagram id="PwyaBWzQ6-fxvwa9Ljz5" name="Page-1">
    <mxGraphModel dx="1854" dy="549" grid="1" gridSize="10" guides="1" tooltips="1" connect="1" arrows="1" fold="1" page="1" pageScale="1" pageWidth="827" pageHeight="1169" background="#F1FAEE" math="0" shadow="0">
      <root>
        <mxCell id="0" />
        <mxCell id="1" parent="0" />
        <mxCell id="lO-5r40bLBqvEmJkPMS4-18" value="" style="shape=table;html=1;whiteSpace=wrap;startSize=0;container=1;collapsible=0;childLayout=tableLayout;fillColor=#f5f5f5;strokeColor=#666666;fontColor=#333333;" parent="1" vertex="1">
          <mxGeometry x="-113" y="30" width="940" height="730" as="geometry" />
        </mxCell>
        <mxCell id="lO-5r40bLBqvEmJkPMS4-19" value="" style="shape=partialRectangle;html=1;whiteSpace=wrap;collapsible=0;dropTarget=0;pointerEvents=0;fillColor=none;top=0;left=0;bottom=0;right=0;points=[[0,0.5],[1,0.5]];portConstraint=eastwest;strokeColor=#457B9D;fontColor=#1D3557;" parent="lO-5r40bLBqvEmJkPMS4-18" vertex="1">
          <mxGeometry width="940" height="30" as="geometry" />
        </mxCell>
        <mxCell id="lO-5r40bLBqvEmJkPMS4-20" value="&lt;font style=&quot;font-size: 22px&quot;&gt;&lt;b&gt;Pallone frenato&lt;/b&gt;&lt;/font&gt;" style="shape=partialRectangle;html=1;whiteSpace=wrap;connectable=0;overflow=hidden;fillColor=none;top=0;left=0;bottom=0;right=0;strokeColor=#457B9D;fontColor=#1D3557;" parent="lO-5r40bLBqvEmJkPMS4-19" vertex="1">
          <mxGeometry width="188" height="30" as="geometry" />
        </mxCell>
        <mxCell id="lO-5r40bLBqvEmJkPMS4-21" value="&lt;b&gt;&lt;font style=&quot;font-size: 22px&quot;&gt;Base&lt;/font&gt;&lt;/b&gt;" style="shape=partialRectangle;html=1;whiteSpace=wrap;connectable=0;overflow=hidden;fillColor=none;top=0;left=0;bottom=0;right=0;strokeColor=#457B9D;fontColor=#1D3557;" parent="lO-5r40bLBqvEmJkPMS4-19" vertex="1">
          <mxGeometry x="188" width="188" height="30" as="geometry" />
        </mxCell>
        <mxCell id="lO-5r40bLBqvEmJkPMS4-22" value="&lt;font style=&quot;font-size: 22px&quot;&gt;&lt;b&gt;Backend server&lt;/b&gt;&lt;/font&gt;" style="shape=partialRectangle;html=1;whiteSpace=wrap;connectable=0;overflow=hidden;fillColor=none;top=0;left=0;bottom=0;right=0;strokeColor=#457B9D;fontColor=#1D3557;" parent="lO-5r40bLBqvEmJkPMS4-19" vertex="1">
          <mxGeometry x="376" width="188" height="30" as="geometry" />
        </mxCell>
        <mxCell id="lO-5r40bLBqvEmJkPMS4-23" value="&lt;font style=&quot;font-size: 22px&quot;&gt;&lt;b&gt;DB&lt;/b&gt;&lt;/font&gt;" style="shape=partialRectangle;html=1;whiteSpace=wrap;connectable=0;overflow=hidden;fillColor=none;top=0;left=0;bottom=0;right=0;strokeColor=#457B9D;fontColor=#1D3557;" parent="lO-5r40bLBqvEmJkPMS4-19" vertex="1">
          <mxGeometry x="564" width="188" height="30" as="geometry" />
        </mxCell>
        <mxCell id="lO-5r40bLBqvEmJkPMS4-24" value="&lt;font style=&quot;font-size: 22px&quot;&gt;&lt;b&gt;Client&lt;/b&gt;&lt;/font&gt;" style="shape=partialRectangle;html=1;whiteSpace=wrap;connectable=0;overflow=hidden;fillColor=none;top=0;left=0;bottom=0;right=0;strokeColor=#457B9D;fontColor=#1D3557;" parent="lO-5r40bLBqvEmJkPMS4-19" vertex="1">
          <mxGeometry x="752" width="188" height="30" as="geometry" />
        </mxCell>
        <mxCell id="lO-5r40bLBqvEmJkPMS4-25" value="" style="shape=partialRectangle;html=1;whiteSpace=wrap;collapsible=0;dropTarget=0;pointerEvents=0;fillColor=none;top=0;left=0;bottom=0;right=0;points=[[0,0.5],[1,0.5]];portConstraint=eastwest;strokeColor=#457B9D;fontColor=#1D3557;" parent="lO-5r40bLBqvEmJkPMS4-18" vertex="1">
          <mxGeometry y="30" width="940" height="700" as="geometry" />
        </mxCell>
        <mxCell id="lO-5r40bLBqvEmJkPMS4-26" value="" style="shape=partialRectangle;html=1;whiteSpace=wrap;connectable=0;overflow=hidden;fillColor=none;top=0;left=0;bottom=0;right=0;strokeColor=#457B9D;fontColor=#1D3557;" parent="lO-5r40bLBqvEmJkPMS4-25" vertex="1">
          <mxGeometry width="188" height="700" as="geometry" />
        </mxCell>
        <mxCell id="lO-5r40bLBqvEmJkPMS4-27" value="" style="shape=partialRectangle;html=1;whiteSpace=wrap;connectable=0;overflow=hidden;fillColor=none;top=0;left=0;bottom=0;right=0;strokeColor=#457B9D;fontColor=#1D3557;" parent="lO-5r40bLBqvEmJkPMS4-25" vertex="1">
          <mxGeometry x="188" width="188" height="700" as="geometry" />
        </mxCell>
        <mxCell id="lO-5r40bLBqvEmJkPMS4-28" value="" style="shape=partialRectangle;html=1;whiteSpace=wrap;connectable=0;overflow=hidden;fillColor=none;top=0;left=0;bottom=0;right=0;strokeColor=#457B9D;fontColor=#1D3557;" parent="lO-5r40bLBqvEmJkPMS4-25" vertex="1">
          <mxGeometry x="376" width="188" height="700" as="geometry" />
        </mxCell>
        <mxCell id="lO-5r40bLBqvEmJkPMS4-29" value="" style="shape=partialRectangle;html=1;whiteSpace=wrap;connectable=0;overflow=hidden;fillColor=none;top=0;left=0;bottom=0;right=0;strokeColor=#457B9D;fontColor=#1D3557;" parent="lO-5r40bLBqvEmJkPMS4-25" vertex="1">
          <mxGeometry x="564" width="188" height="700" as="geometry" />
        </mxCell>
        <mxCell id="lO-5r40bLBqvEmJkPMS4-30" value="" style="shape=partialRectangle;html=1;whiteSpace=wrap;connectable=0;overflow=hidden;fillColor=none;top=0;left=0;bottom=0;right=0;strokeColor=#457B9D;fontColor=#1D3557;" parent="lO-5r40bLBqvEmJkPMS4-25" vertex="1">
          <mxGeometry x="752" width="188" height="700" as="geometry" />
        </mxCell>
        <mxCell id="lO-5r40bLBqvEmJkPMS4-94" style="edgeStyle=orthogonalEdgeStyle;rounded=0;orthogonalLoop=1;jettySize=auto;html=1;entryX=0.5;entryY=0;entryDx=0;entryDy=0;strokeColor=#457B9D;fontColor=#1D3557;labelBackgroundColor=#F1FAEE;" parent="1" source="lO-5r40bLBqvEmJkPMS4-32" target="lO-5r40bLBqvEmJkPMS4-37" edge="1">
          <mxGeometry relative="1" as="geometry" />
        </mxCell>
        <mxCell id="lO-5r40bLBqvEmJkPMS4-32" value="Raccolta dati" style="shape=parallelogram;perimeter=parallelogramPerimeter;whiteSpace=wrap;html=1;fixedSize=1;fillColor=#A8DADC;strokeColor=#457B9D;fontColor=#1D3557;" parent="1" vertex="1">
          <mxGeometry x="-80" y="100" width="120" height="60" as="geometry" />
        </mxCell>
        <mxCell id="lO-5r40bLBqvEmJkPMS4-149" style="edgeStyle=orthogonalEdgeStyle;curved=0;rounded=1;sketch=0;orthogonalLoop=1;jettySize=auto;html=1;entryX=0;entryY=0.5;entryDx=0;entryDy=0;strokeColor=#457B9D;fillColor=#A8DADC;fontColor=#1D3557;" parent="1" source="lO-5r40bLBqvEmJkPMS4-37" target="lO-5r40bLBqvEmJkPMS4-86" edge="1">
          <mxGeometry relative="1" as="geometry">
            <Array as="points">
              <mxPoint x="90" y="220" />
              <mxPoint x="90" y="140" />
            </Array>
          </mxGeometry>
        </mxCell>
        <mxCell id="lO-5r40bLBqvEmJkPMS4-151" value="&lt;font style=&quot;font-size: 12px&quot;&gt;Connessione&lt;br&gt;socket&lt;br&gt;&lt;/font&gt;" style="edgeLabel;html=1;align=center;verticalAlign=middle;resizable=0;points=[];fontColor=#1D3557;" parent="lO-5r40bLBqvEmJkPMS4-149" vertex="1" connectable="0">
          <mxGeometry x="0.0664" y="2" relative="1" as="geometry">
            <mxPoint as="offset" />
          </mxGeometry>
        </mxCell>
        <mxCell id="lO-5r40bLBqvEmJkPMS4-37" value="Elaborazione" style="rounded=0;whiteSpace=wrap;html=1;fillColor=#A8DADC;strokeColor=#457B9D;fontColor=#1D3557;" parent="1" vertex="1">
          <mxGeometry x="-80" y="190" width="120" height="60" as="geometry" />
        </mxCell>
        <mxCell id="lO-5r40bLBqvEmJkPMS4-103" style="edgeStyle=orthogonalEdgeStyle;rounded=1;orthogonalLoop=1;jettySize=auto;html=1;entryX=0.5;entryY=0;entryDx=0;entryDy=0;strokeColor=#457B9D;fontColor=#1D3557;labelBackgroundColor=#F1FAEE;" parent="1" source="lO-5r40bLBqvEmJkPMS4-45" target="lO-5r40bLBqvEmJkPMS4-88" edge="1">
          <mxGeometry relative="1" as="geometry" />
        </mxCell>
        <mxCell id="lO-5r40bLBqvEmJkPMS4-45" value="Connessione socket per dati" style="rounded=0;whiteSpace=wrap;html=1;fillColor=#A8DADC;strokeColor=#457B9D;fontColor=#1D3557;" parent="1" vertex="1">
          <mxGeometry x="320" y="100" width="120" height="60" as="geometry" />
        </mxCell>
        <mxCell id="lO-5r40bLBqvEmJkPMS4-50" value="Storage dati in formato json" style="rounded=0;whiteSpace=wrap;html=1;fillColor=#A8DADC;strokeColor=#457B9D;fontColor=#1D3557;" parent="1" vertex="1">
          <mxGeometry x="490" y="100" width="120" height="60" as="geometry" />
        </mxCell>
        <mxCell id="lO-5r40bLBqvEmJkPMS4-123" style="edgeStyle=orthogonalEdgeStyle;rounded=1;orthogonalLoop=1;jettySize=auto;html=1;exitX=1;exitY=0.75;exitDx=0;exitDy=0;strokeColor=#457B9D;fontColor=#1D3557;labelBackgroundColor=#F1FAEE;" parent="1" source="lO-5r40bLBqvEmJkPMS4-56" edge="1">
          <mxGeometry relative="1" as="geometry">
            <mxPoint x="680" y="310" as="targetPoint" />
            <Array as="points">
              <mxPoint x="660" y="315" />
              <mxPoint x="660" y="310" />
            </Array>
          </mxGeometry>
        </mxCell>
        <mxCell id="lO-5r40bLBqvEmJkPMS4-56" value="http api endpoint1&lt;span style=&quot;color: rgba(0 , 0 , 0 , 0) ; font-family: monospace ; font-size: 0px&quot;&gt;%3CmxGraphModel%3E%3Croot%3E%3CmxCell%20id%3D%220%22%2F%3E%3CmxCell%20id%3D%221%22%20parent%3D%220%22%2F%3E%3CmxCell%20id%3D%222%22%20value%3D%22Lane%203%22%20style%3D%22swimlane%3Bhtml%3D1%3BstartSize%3D20%3B%22%20vertex%3D%221%22%20parent%3D%221%22%3E%3CmxGeometry%20x%3D%22470%22%20y%3D%2260%22%20width%3D%22120%22%20height%3D%22460%22%20as%3D%22geometry%22%2F%3E%3C%2FmxCell%3E%3C%2Froot%3E%3C%2FmxGraphModel%3E&lt;/span&gt;" style="rounded=0;whiteSpace=wrap;html=1;fillColor=#A8DADC;strokeColor=#457B9D;fontColor=#1D3557;" parent="1" vertex="1">
          <mxGeometry x="295.5" y="270" width="120" height="60" as="geometry" />
        </mxCell>
        <mxCell id="lO-5r40bLBqvEmJkPMS4-121" style="edgeStyle=orthogonalEdgeStyle;rounded=1;orthogonalLoop=1;jettySize=auto;html=1;exitX=1;exitY=0.75;exitDx=0;exitDy=0;entryX=0;entryY=0.5;entryDx=0;entryDy=0;strokeColor=#457B9D;fontColor=#1D3557;labelBackgroundColor=#F1FAEE;" parent="1" source="lO-5r40bLBqvEmJkPMS4-58" target="lO-5r40bLBqvEmJkPMS4-65" edge="1">
          <mxGeometry relative="1" as="geometry">
            <Array as="points">
              <mxPoint x="660" y="475" />
              <mxPoint x="660" y="310" />
            </Array>
          </mxGeometry>
        </mxCell>
        <mxCell id="lO-5r40bLBqvEmJkPMS4-58" value="http api endpoint3&lt;span style=&quot;color: rgba(0 , 0 , 0 , 0) ; font-family: monospace ; font-size: 0px&quot;&gt;%3CmxGraphModel%3E%3Croot%3E%3CmxCell%20id%3D%220%22%2F%3E%3CmxCell%20id%3D%221%22%20parent%3D%220%22%2F%3E%3CmxCell%20id%3D%222%22%20value%3D%22Lane%203%22%20style%3D%22swimlane%3Bhtml%3D1%3BstartSize%3D20%3B%22%20vertex%3D%221%22%20parent%3D%221%22%3E%3CmxGeometry%20x%3D%22470%22%20y%3D%2260%22%20width%3D%22120%22%20height%3D%22460%22%20as%3D%22geometry%22%2F%3E%3C%2FmxCell%3E%3C%2Froot%3E%3C%2FmxGraphModel%3E&lt;/span&gt;" style="rounded=0;whiteSpace=wrap;html=1;fillColor=#A8DADC;strokeColor=#457B9D;fontColor=#1D3557;" parent="1" vertex="1">
          <mxGeometry x="295.5" y="430" width="120" height="60" as="geometry" />
        </mxCell>
        <mxCell id="lO-5r40bLBqvEmJkPMS4-120" style="edgeStyle=orthogonalEdgeStyle;rounded=1;orthogonalLoop=1;jettySize=auto;html=1;exitX=1;exitY=0.75;exitDx=0;exitDy=0;entryX=0;entryY=0.5;entryDx=0;entryDy=0;strokeColor=#457B9D;fontColor=#1D3557;labelBackgroundColor=#F1FAEE;" parent="1" source="lO-5r40bLBqvEmJkPMS4-59" target="lO-5r40bLBqvEmJkPMS4-65" edge="1">
          <mxGeometry relative="1" as="geometry">
            <Array as="points">
              <mxPoint x="660" y="395" />
              <mxPoint x="660" y="310" />
            </Array>
          </mxGeometry>
        </mxCell>
        <mxCell id="lO-5r40bLBqvEmJkPMS4-152" value="http" style="edgeLabel;html=1;align=center;verticalAlign=middle;resizable=0;points=[];fontColor=#1D3557;" parent="lO-5r40bLBqvEmJkPMS4-120" vertex="1" connectable="0">
          <mxGeometry x="0.8664" relative="1" as="geometry">
            <mxPoint as="offset" />
          </mxGeometry>
        </mxCell>
        <mxCell id="lO-5r40bLBqvEmJkPMS4-59" value="http api endpoint2&lt;span style=&quot;color: rgba(0 , 0 , 0 , 0) ; font-family: monospace ; font-size: 0px&quot;&gt;%3CmxGraphModel%3E%3Croot%3E%3CmxCell%20id%3D%220%22%2F%3E%3CmxCell%20id%3D%221%22%20parent%3D%220%22%2F%3E%3CmxCell%20id%3D%222%22%20value%3D%22Lane%203%22%20style%3D%22swimlane%3Bhtml%3D1%3BstartSize%3D20%3B%22%20vertex%3D%221%22%20parent%3D%221%22%3E%3CmxGeometry%20x%3D%22470%22%20y%3D%2260%22%20width%3D%22120%22%20height%3D%22460%22%20as%3D%22geometry%22%2F%3E%3C%2FmxCell%3E%3C%2Froot%3E%3C%2FmxGraphModel%3&lt;/span&gt;" style="rounded=0;whiteSpace=wrap;html=1;fillColor=#A8DADC;strokeColor=#457B9D;fontColor=#1D3557;" parent="1" vertex="1">
          <mxGeometry x="295.5" y="350" width="120" height="60" as="geometry" />
        </mxCell>
        <mxCell id="lO-5r40bLBqvEmJkPMS4-146" style="edgeStyle=orthogonalEdgeStyle;rounded=1;orthogonalLoop=1;jettySize=auto;html=1;exitX=0.5;exitY=1;exitDx=0;exitDy=0;entryX=0.5;entryY=0;entryDx=0;entryDy=0;strokeColor=#457B9D;fontSize=16;fontColor=#1D3557;labelBackgroundColor=#F1FAEE;" parent="1" source="lO-5r40bLBqvEmJkPMS4-62" target="lO-5r40bLBqvEmJkPMS4-64" edge="1">
          <mxGeometry relative="1" as="geometry" />
        </mxCell>
        <mxCell id="lO-5r40bLBqvEmJkPMS4-62" value="Utente visita il sito" style="shape=parallelogram;perimeter=parallelogramPerimeter;whiteSpace=wrap;html=1;fixedSize=1;fillColor=#A8DADC;strokeColor=#457B9D;fontColor=#1D3557;" parent="1" vertex="1">
          <mxGeometry x="680" y="120" width="120" height="60" as="geometry" />
        </mxCell>
        <mxCell id="lO-5r40bLBqvEmJkPMS4-116" style="edgeStyle=orthogonalEdgeStyle;rounded=1;orthogonalLoop=1;jettySize=auto;html=1;entryX=1;entryY=0.25;entryDx=0;entryDy=0;strokeColor=#457B9D;fontColor=#1D3557;labelBackgroundColor=#F1FAEE;" parent="1" source="lO-5r40bLBqvEmJkPMS4-64" target="lO-5r40bLBqvEmJkPMS4-56" edge="1">
          <mxGeometry relative="1" as="geometry">
            <Array as="points">
              <mxPoint x="430" y="230" />
              <mxPoint x="430" y="285" />
            </Array>
          </mxGeometry>
        </mxCell>
        <mxCell id="lO-5r40bLBqvEmJkPMS4-117" style="edgeStyle=orthogonalEdgeStyle;rounded=1;orthogonalLoop=1;jettySize=auto;html=1;entryX=1;entryY=0.25;entryDx=0;entryDy=0;strokeColor=#457B9D;fontColor=#1D3557;labelBackgroundColor=#F1FAEE;" parent="1" source="lO-5r40bLBqvEmJkPMS4-64" target="lO-5r40bLBqvEmJkPMS4-59" edge="1">
          <mxGeometry relative="1" as="geometry">
            <Array as="points">
              <mxPoint x="430" y="230" />
              <mxPoint x="430" y="365" />
            </Array>
          </mxGeometry>
        </mxCell>
        <mxCell id="lO-5r40bLBqvEmJkPMS4-118" style="edgeStyle=orthogonalEdgeStyle;rounded=1;orthogonalLoop=1;jettySize=auto;html=1;entryX=1;entryY=0.25;entryDx=0;entryDy=0;strokeColor=#457B9D;fontColor=#1D3557;labelBackgroundColor=#F1FAEE;" parent="1" source="lO-5r40bLBqvEmJkPMS4-64" target="lO-5r40bLBqvEmJkPMS4-58" edge="1">
          <mxGeometry relative="1" as="geometry">
            <Array as="points">
              <mxPoint x="430" y="230" />
              <mxPoint x="430" y="445" />
            </Array>
          </mxGeometry>
        </mxCell>
        <mxCell id="lO-5r40bLBqvEmJkPMS4-145" value="&lt;font style=&quot;font-size: 12px&quot;&gt;http&lt;/font&gt;" style="edgeLabel;html=1;align=center;verticalAlign=middle;resizable=0;points=[];fontSize=16;fontColor=#1D3557;labelBackgroundColor=#F1FAEE;" parent="lO-5r40bLBqvEmJkPMS4-118" vertex="1" connectable="0">
          <mxGeometry x="-0.6743" y="3" relative="1" as="geometry">
            <mxPoint as="offset" />
          </mxGeometry>
        </mxCell>
        <mxCell id="lO-5r40bLBqvEmJkPMS4-64" value="Richiesta dati" style="rounded=0;whiteSpace=wrap;html=1;fillColor=#A8DADC;strokeColor=#457B9D;fontColor=#1D3557;" parent="1" vertex="1">
          <mxGeometry x="680" y="200" width="120" height="60" as="geometry" />
        </mxCell>
        <mxCell id="lO-5r40bLBqvEmJkPMS4-65" value="Creazione grafici" style="rounded=0;whiteSpace=wrap;html=1;fillColor=#A8DADC;strokeColor=#457B9D;fontColor=#1D3557;" parent="1" vertex="1">
          <mxGeometry x="680" y="280" width="120" height="60" as="geometry" />
        </mxCell>
        <mxCell id="lO-5r40bLBqvEmJkPMS4-79" value="&lt;font style=&quot;font-size: 16px&quot;&gt;Client&lt;br&gt;Openmct&lt;/font&gt;" style="text;html=1;strokeColor=none;fillColor=none;align=center;verticalAlign=middle;whiteSpace=wrap;rounded=0;fontColor=#1D3557;" parent="1" vertex="1">
          <mxGeometry x="720" y="80" width="40" height="20" as="geometry" />
        </mxCell>
        <mxCell id="lO-5r40bLBqvEmJkPMS4-126" style="edgeStyle=orthogonalEdgeStyle;rounded=1;orthogonalLoop=1;jettySize=auto;html=1;entryX=1;entryY=0.75;entryDx=0;entryDy=0;strokeColor=#457B9D;fontSize=16;fontColor=#1D3557;labelBackgroundColor=#F1FAEE;" parent="1" source="lO-5r40bLBqvEmJkPMS4-82" target="lO-5r40bLBqvEmJkPMS4-84" edge="1">
          <mxGeometry relative="1" as="geometry">
            <Array as="points">
              <mxPoint x="430" y="590" />
              <mxPoint x="430" y="565" />
            </Array>
          </mxGeometry>
        </mxCell>
        <mxCell id="lO-5r40bLBqvEmJkPMS4-153" value="http" style="edgeLabel;html=1;align=center;verticalAlign=middle;resizable=0;points=[];fontColor=#1D3557;" parent="lO-5r40bLBqvEmJkPMS4-126" vertex="1" connectable="0">
          <mxGeometry x="-0.5137" relative="1" as="geometry">
            <mxPoint as="offset" />
          </mxGeometry>
        </mxCell>
        <mxCell id="lO-5r40bLBqvEmJkPMS4-82" value="Invio nuove impostazioni" style="shape=parallelogram;perimeter=parallelogramPerimeter;whiteSpace=wrap;html=1;fixedSize=1;fillColor=#A8DADC;strokeColor=#457B9D;fontColor=#1D3557;" parent="1" vertex="1">
          <mxGeometry x="680" y="555" width="120" height="60" as="geometry" />
        </mxCell>
        <mxCell id="lO-5r40bLBqvEmJkPMS4-134" style="edgeStyle=orthogonalEdgeStyle;rounded=1;orthogonalLoop=1;jettySize=auto;html=1;entryX=0;entryY=0.5;entryDx=0;entryDy=0;strokeColor=#457B9D;fontSize=16;fontColor=#1D3557;labelBackgroundColor=#F1FAEE;" parent="1" source="lO-5r40bLBqvEmJkPMS4-83" target="lO-5r40bLBqvEmJkPMS4-87" edge="1">
          <mxGeometry relative="1" as="geometry">
            <Array as="points">
              <mxPoint x="280" y="250" />
              <mxPoint x="280" y="630" />
            </Array>
          </mxGeometry>
        </mxCell>
        <mxCell id="lO-5r40bLBqvEmJkPMS4-83" value="Richiesta impostazioni&amp;nbsp;&lt;br&gt;ogni 12 ore" style="shape=parallelogram;perimeter=parallelogramPerimeter;whiteSpace=wrap;html=1;fixedSize=1;fillColor=#A8DADC;strokeColor=#457B9D;fontColor=#1D3557;" parent="1" vertex="1">
          <mxGeometry x="109" y="220" width="120" height="60" as="geometry" />
        </mxCell>
        <mxCell id="lO-5r40bLBqvEmJkPMS4-127" style="edgeStyle=orthogonalEdgeStyle;rounded=1;orthogonalLoop=1;jettySize=auto;html=1;entryX=0;entryY=0.5;entryDx=0;entryDy=0;strokeColor=#457B9D;fontSize=16;fontColor=#1D3557;labelBackgroundColor=#F1FAEE;" parent="1" source="lO-5r40bLBqvEmJkPMS4-84" target="lO-5r40bLBqvEmJkPMS4-85" edge="1">
          <mxGeometry relative="1" as="geometry">
            <Array as="points">
              <mxPoint x="430" y="540" />
              <mxPoint x="430" y="530" />
            </Array>
          </mxGeometry>
        </mxCell>
        <mxCell id="lO-5r40bLBqvEmJkPMS4-84" value="http endpoint impostazioni" style="rounded=0;whiteSpace=wrap;html=1;fillColor=#A8DADC;strokeColor=#457B9D;fontColor=#1D3557;" parent="1" vertex="1">
          <mxGeometry x="295.5" y="520" width="120" height="60" as="geometry" />
        </mxCell>
        <mxCell id="lO-5r40bLBqvEmJkPMS4-85" value="Storage &lt;br&gt;impostazioni" style="rounded=0;whiteSpace=wrap;html=1;fillColor=#A8DADC;strokeColor=#457B9D;fontColor=#1D3557;" parent="1" vertex="1">
          <mxGeometry x="480" y="500" width="120" height="60" as="geometry" />
        </mxCell>
        <mxCell id="lO-5r40bLBqvEmJkPMS4-147" style="edgeStyle=orthogonalEdgeStyle;curved=0;rounded=1;sketch=0;orthogonalLoop=1;jettySize=auto;html=1;entryX=0;entryY=0.5;entryDx=0;entryDy=0;strokeColor=#457B9D;fillColor=#A8DADC;fontColor=#1D3557;" parent="1" source="lO-5r40bLBqvEmJkPMS4-86" target="lO-5r40bLBqvEmJkPMS4-45" edge="1">
          <mxGeometry relative="1" as="geometry">
            <Array as="points">
              <mxPoint x="290" y="140" />
              <mxPoint x="290" y="130" />
            </Array>
          </mxGeometry>
        </mxCell>
        <mxCell id="lO-5r40bLBqvEmJkPMS4-148" value="Connesione&lt;br&gt;socket" style="edgeLabel;html=1;align=center;verticalAlign=middle;resizable=0;points=[];fontColor=#1D3557;" parent="lO-5r40bLBqvEmJkPMS4-147" vertex="1" connectable="0">
          <mxGeometry x="-0.1303" y="2" relative="1" as="geometry">
            <mxPoint as="offset" />
          </mxGeometry>
        </mxCell>
        <mxCell id="lO-5r40bLBqvEmJkPMS4-86" value="Raccolta dati e invio al server" style="rounded=0;whiteSpace=wrap;html=1;fillColor=#A8DADC;strokeColor=#457B9D;fontColor=#1D3557;" parent="1" vertex="1">
          <mxGeometry x="109" y="110" width="120" height="60" as="geometry" />
        </mxCell>
        <mxCell id="lO-5r40bLBqvEmJkPMS4-87" value="Connessione socket impostazioni" style="rounded=0;whiteSpace=wrap;html=1;fillColor=#A8DADC;strokeColor=#457B9D;fontColor=#1D3557;" parent="1" vertex="1">
          <mxGeometry x="297" y="600" width="120" height="60" as="geometry" />
        </mxCell>
        <mxCell id="lO-5r40bLBqvEmJkPMS4-104" style="edgeStyle=orthogonalEdgeStyle;rounded=1;orthogonalLoop=1;jettySize=auto;html=1;entryX=0;entryY=0.5;entryDx=0;entryDy=0;strokeColor=#457B9D;fontColor=#1D3557;labelBackgroundColor=#F1FAEE;" parent="1" source="lO-5r40bLBqvEmJkPMS4-88" target="lO-5r40bLBqvEmJkPMS4-50" edge="1">
          <mxGeometry relative="1" as="geometry">
            <Array as="points">
              <mxPoint x="470" y="220" />
              <mxPoint x="470" y="130" />
            </Array>
          </mxGeometry>
        </mxCell>
        <mxCell id="lO-5r40bLBqvEmJkPMS4-88" value="Elaborazione in json" style="rounded=0;whiteSpace=wrap;html=1;fillColor=#A8DADC;strokeColor=#457B9D;fontColor=#1D3557;" parent="1" vertex="1">
          <mxGeometry x="295.5" y="190" width="120" height="60" as="geometry" />
        </mxCell>
        <mxCell id="lO-5r40bLBqvEmJkPMS4-141" style="edgeStyle=orthogonalEdgeStyle;rounded=1;orthogonalLoop=1;jettySize=auto;html=1;strokeColor=#457B9D;fontSize=16;fontColor=#1D3557;labelBackgroundColor=#F1FAEE;" parent="1" source="lO-5r40bLBqvEmJkPMS4-89" target="lO-5r40bLBqvEmJkPMS4-91" edge="1">
          <mxGeometry relative="1" as="geometry" />
        </mxCell>
        <mxCell id="lO-5r40bLBqvEmJkPMS4-89" value="Lettura impostazioni" style="rounded=0;whiteSpace=wrap;html=1;fillColor=#A8DADC;strokeColor=#457B9D;fontColor=#1D3557;" parent="1" vertex="1">
          <mxGeometry x="109" y="320" width="120" height="60" as="geometry" />
        </mxCell>
        <mxCell id="lO-5r40bLBqvEmJkPMS4-91" value="Esecuzione comandi" style="rounded=0;whiteSpace=wrap;html=1;fillColor=#A8DADC;strokeColor=#457B9D;fontColor=#1D3557;" parent="1" vertex="1">
          <mxGeometry x="-80" y="320" width="120" height="60" as="geometry" />
        </mxCell>
        <mxCell id="lO-5r40bLBqvEmJkPMS4-113" value="" style="endArrow=classic;startArrow=classic;html=1;strokeColor=#457B9D;exitX=1;exitY=0.5;exitDx=0;exitDy=0;fontColor=#1D3557;labelBackgroundColor=#F1FAEE;" parent="1" source="lO-5r40bLBqvEmJkPMS4-56" edge="1">
          <mxGeometry width="50" height="50" relative="1" as="geometry">
            <mxPoint x="500" y="210" as="sourcePoint" />
            <mxPoint x="550" y="160" as="targetPoint" />
            <Array as="points">
              <mxPoint x="550" y="300" />
            </Array>
          </mxGeometry>
        </mxCell>
        <mxCell id="lO-5r40bLBqvEmJkPMS4-114" value="" style="endArrow=classic;startArrow=classic;html=1;strokeColor=#457B9D;exitX=1;exitY=0.5;exitDx=0;exitDy=0;entryX=0.5;entryY=1;entryDx=0;entryDy=0;fontColor=#1D3557;labelBackgroundColor=#F1FAEE;" parent="1" source="lO-5r40bLBqvEmJkPMS4-59" target="lO-5r40bLBqvEmJkPMS4-50" edge="1">
          <mxGeometry width="50" height="50" relative="1" as="geometry">
            <mxPoint x="330" y="350" as="sourcePoint" />
            <mxPoint x="550" y="170" as="targetPoint" />
            <Array as="points">
              <mxPoint x="550" y="380" />
            </Array>
          </mxGeometry>
        </mxCell>
        <mxCell id="lO-5r40bLBqvEmJkPMS4-115" value="" style="endArrow=classic;startArrow=classic;html=1;strokeColor=#457B9D;exitX=1;exitY=0.5;exitDx=0;exitDy=0;fontColor=#1D3557;labelBackgroundColor=#F1FAEE;" parent="1" source="lO-5r40bLBqvEmJkPMS4-58" edge="1">
          <mxGeometry width="50" height="50" relative="1" as="geometry">
            <mxPoint x="330" y="450" as="sourcePoint" />
            <mxPoint x="550" y="160" as="targetPoint" />
            <Array as="points">
              <mxPoint x="550" y="460" />
            </Array>
          </mxGeometry>
        </mxCell>
        <mxCell id="lO-5r40bLBqvEmJkPMS4-124" value="&lt;span style=&quot;font-weight: normal&quot;&gt;Client&lt;br&gt;impostazioni&lt;br&gt;&lt;/span&gt;" style="text;html=1;strokeColor=none;fillColor=none;align=center;verticalAlign=middle;whiteSpace=wrap;rounded=0;fontSize=16;fontStyle=1;fontColor=#1D3557;" parent="1" vertex="1">
          <mxGeometry x="730" y="510" width="40" height="20" as="geometry" />
        </mxCell>
        <mxCell id="lO-5r40bLBqvEmJkPMS4-128" value="" style="endArrow=classic;startArrow=classic;html=1;strokeColor=#457B9D;fontSize=16;exitX=0.5;exitY=1;exitDx=0;exitDy=0;entryX=1;entryY=0.5;entryDx=0;entryDy=0;fontColor=#1D3557;labelBackgroundColor=#F1FAEE;" parent="1" source="lO-5r40bLBqvEmJkPMS4-85" target="lO-5r40bLBqvEmJkPMS4-129" edge="1">
          <mxGeometry width="50" height="50" relative="1" as="geometry">
            <mxPoint x="330" y="580" as="sourcePoint" />
            <mxPoint x="380" y="530" as="targetPoint" />
            <Array as="points">
              <mxPoint x="540" y="710" />
            </Array>
          </mxGeometry>
        </mxCell>
        <mxCell id="lO-5r40bLBqvEmJkPMS4-140" style="edgeStyle=orthogonalEdgeStyle;rounded=1;orthogonalLoop=1;jettySize=auto;html=1;entryX=1;entryY=0.5;entryDx=0;entryDy=0;strokeColor=#457B9D;fontSize=16;fontColor=#1D3557;labelBackgroundColor=#F1FAEE;" parent="1" source="lO-5r40bLBqvEmJkPMS4-129" target="lO-5r40bLBqvEmJkPMS4-89" edge="1">
          <mxGeometry relative="1" as="geometry">
            <Array as="points">
              <mxPoint x="250" y="710" />
              <mxPoint x="250" y="350" />
            </Array>
          </mxGeometry>
        </mxCell>
        <mxCell id="lO-5r40bLBqvEmJkPMS4-144" value="&lt;span style=&quot;font-size: 12px&quot;&gt;Connessione&lt;br&gt;Socket&lt;br&gt;&lt;/span&gt;" style="edgeLabel;html=1;align=center;verticalAlign=middle;resizable=0;points=[];fontSize=16;fontColor=#1D3557;labelBackgroundColor=#F1FAEE;" parent="lO-5r40bLBqvEmJkPMS4-140" vertex="1" connectable="0">
          <mxGeometry x="0.1861" y="2" relative="1" as="geometry">
            <mxPoint x="7.5" y="206" as="offset" />
          </mxGeometry>
        </mxCell>
        <mxCell id="lO-5r40bLBqvEmJkPMS4-129" value="Elaborazione impostazioni corrette" style="rounded=0;whiteSpace=wrap;html=1;fillColor=#A8DADC;strokeColor=#457B9D;fontColor=#1D3557;" parent="1" vertex="1">
          <mxGeometry x="297" y="680" width="120" height="60" as="geometry" />
        </mxCell>
        <mxCell id="lO-5r40bLBqvEmJkPMS4-139" value="" style="endArrow=classic;html=1;strokeColor=#457B9D;fontSize=16;exitX=0.5;exitY=1;exitDx=0;exitDy=0;entryX=0.5;entryY=0;entryDx=0;entryDy=0;fontColor=#1D3557;labelBackgroundColor=#F1FAEE;" parent="1" source="lO-5r40bLBqvEmJkPMS4-87" target="lO-5r40bLBqvEmJkPMS4-129" edge="1">
          <mxGeometry width="50" height="50" relative="1" as="geometry">
            <mxPoint x="330" y="530" as="sourcePoint" />
            <mxPoint x="380" y="480" as="targetPoint" />
          </mxGeometry>
        </mxCell>
      </root>
    </mxGraphModel>
  </diagram>
</mxfile>
